<?xml version="1.0" encoding="utf-8"?>
<!-- Generator: Adobe Illustrator 22.1.0, SVG Export Plug-In . SVG Version: 6.00 Build 0)  -->
<svg version="1.1" id="Layer_1" xmlns="http://www.w3.org/2000/svg" xmlns:xlink="http://www.w3.org/1999/xlink" x="0px" y="0px"
	 viewBox="0 0 512 512" style="enable-background:new 0 0 512 512;" xml:space="preserve">
<g>
	<path d="M436.8,281.5c-32.4,0-46.5,24.7-64.1,24.7c-46.9,0-4.2-137.7-4.2-137.7s-153.3,62.5-153.3-2.6c0-28,28.3-36.1,28.3-67.2
		c0-27.7-22-42.7-48-42.7c-27.1,0-51.8,14.8-51.8,44c0,32.3,24.8,46.3,24.8,63.9c0,54.4-137.4,22.4-137.4,22.4v260.3
		c0,0,139.6,32.1,139.6-22.4c0-17.6-31.2-31.3-31.2-63.6c0-29.3,22.9-44,49.7-44c26.3,0,48.3,15,48.3,42.7c0,31-28.3,39.2-28.3,67.2
		c0,47.5,101.3,20.1,141.6,20.1c0,0-27.1-93.8,20.2-93.8c28.1,0,36.3,28.2,67.4,28.2c27.8,0,42.9-21.9,42.9-48.1
		C481,306.2,466.2,281.5,436.8,281.5z"/>
</g>
</svg>
